<?xml version="1.0" standalone="no"?>
<!DOCTYPE svg PUBLIC "-//W3C//DTD SVG 20010904//EN"
 "http://www.w3.org/TR/2001/REC-SVG-20010904/DTD/svg10.dtd">
<svg version="1.0" xmlns="http://www.w3.org/2000/svg"
 width="512.000000pt" height="512.000000pt" viewBox="0 0 512.000000 512.000000"
 preserveAspectRatio="xMidYMid meet">
<metadata>
Created by potrace 1.14, written by Peter Selinger 2001-2017
</metadata>
<g transform="translate(0.000000,512.000000) scale(0.100000,-0.100000)"
fill="#000000" stroke="none">
<path d="M495 4740 c-182 -48 -278 -143 -323 -320 -23 -92 -27 -141 -18 -198
3 -15 10 -65 16 -112 6 -47 13 -97 16 -112 2 -15 6 -47 9 -70 2 -24 6 -57 9
-73 2 -17 7 -52 11 -80 3 -27 8 -61 10 -75 2 -14 6 -45 9 -70 5 -45 8 -68 26
-190 5 -36 12 -83 14 -105 12 -96 58 -439 71 -530 8 -55 17 -122 20 -150 4
-27 8 -61 11 -75 2 -14 7 -50 10 -80 2 -30 7 -62 9 -70 2 -8 7 -42 11 -75 3
-33 7 -67 9 -75 6 -32 15 -97 20 -135 3 -22 8 -58 10 -80 3 -22 7 -56 10 -75
2 -19 16 -120 30 -225 14 -104 28 -208 31 -230 3 -22 7 -53 9 -70 4 -26 19
-138 30 -222 1 -16 6 -48 9 -73 4 -25 9 -63 12 -85 3 -22 7 -51 9 -65 2 -14 7
-50 10 -80 5 -46 18 -115 50 -263 10 -46 19 -66 58 -122 47 -70 136 -141 202
-161 25 -7 45 -11 45 -8 0 3 8 0 18 -5 40 -21 114 -25 642 -27 517 -3 561 -2
637 16 46 11 94 22 109 24 50 9 147 87 198 158 27 37 52 68 55 68 3 0 23 -25
43 -54 51 -73 146 -140 220 -155 32 -7 59 -12 60 -12 2 0 23 -5 48 -12 35 -10
163 -13 555 -11 501 2 512 2 600 26 116 30 195 83 258 171 41 57 51 83 91 233
85 322 86 323 68 408 -8 39 -7 52 4 63 44 44 124 319 125 428 1 107 -79 390
-124 438 -7 6 -25 31 -40 54 -16 22 -45 58 -65 78 -50 50 -179 140 -236 165
-49 21 -123 40 -279 73 l-58 12 529 790 528 790 22 102 23 101 -24 100 c-45
188 -149 290 -343 336 -97 24 -99 24 -738 24 -674 1 -654 2 -826 -43 -8 -2
-20 -4 -25 -4 -6 -1 -41 -24 -78 -52 -78 -58 -110 -104 -392 -566 -99 -161
-180 -291 -181 -290 -2 2 -11 132 -19 252 -8 149 -18 236 -32 290 -8 33 -17
71 -19 85 -6 36 -34 110 -42 110 -4 0 -20 19 -35 43 -16 23 -57 61 -90 84 -58
39 -79 49 -124 57 -10 3 -47 11 -83 19 -55 13 -166 15 -700 14 l-635 -1 -100
-26z"/>
</g>
</svg>
